<svg width="1200" height="400" viewBox="0 0 1200 400" xmlns="http://www.w3.org/2000/svg">
  <defs>
    <!-- Gradient for main background -->
    <linearGradient id="mainBg" x1="0%" y1="0%" x2="100%" y2="100%">
      <stop offset="0%" style="stop-color:#111111;stop-opacity:1" />
      <stop offset="50%" style="stop-color:#1c1c1c;stop-opacity:1" />
      <stop offset="100%" style="stop-color:#111111;stop-opacity:1" />
    </linearGradient>
    
    <!-- Gradient for cards -->
    <linearGradient id="cardGrad" x1="0%" y1="0%" x2="100%" y2="100%">
      <stop offset="0%" style="stop-color:#262626;stop-opacity:1" />
      <stop offset="100%" style="stop-color:#1c1c1c;stop-opacity:1" />
    </linearGradient>
    
    <!-- Sage green gradient for accents -->
    <linearGradient id="sageGrad" x1="0%" y1="0%" x2="100%" y2="100%">
      <stop offset="0%" style="stop-color:#22e55d;stop-opacity:1" />
      <stop offset="100%" style="stop-color:#1db954;stop-opacity:1" />
    </linearGradient>
    
    <!-- Subtle glow effect -->
    <filter id="glow">
      <feGaussianBlur stdDeviation="3" result="coloredBlur"/>
      <feMerge> 
        <feMergeNode in="coloredBlur"/>
        <feMergeNode in="SourceGraphic"/>
      </feMerge>
    </filter>
    
    <!-- Drop shadow for cards -->
    <filter id="cardShadow" x="-50%" y="-50%" width="200%" height="200%">
      <feDropShadow dx="0" dy="4" stdDeviation="8" flood-color="#000000" flood-opacity="0.3"/>
    </filter>
  </defs>
  
  <!-- Main background -->
  <rect width="1200" height="400" fill="url(#mainBg)"/>
  
  <!-- Subtle grid pattern -->
  <defs>
    <pattern id="grid" width="40" height="40" patternUnits="userSpaceOnUse">
      <path d="M 40 0 L 0 0 0 40" fill="none" stroke="#262626" stroke-width="0.5" opacity="0.3"/>
    </pattern>
  </defs>
  <rect width="1200" height="400" fill="url(#grid)"/>
  
  <!-- Floating code cards (left side) -->
  <g id="codeCards" opacity="0.8">
    <!-- Card 1 (back) -->
    <rect x="80" y="120" width="180" height="100" rx="12" fill="url(#cardGrad)" filter="url(#cardShadow)" transform="rotate(-8 170 170)"/>
    <text x="90" y="145" fill="#5e5e5e" font-family="SF Mono, Monaco, monospace" font-size="11" transform="rotate(-8 170 170)">
      <tspan x="90" dy="0">fn cascade_build() {</tspan>
      <tspan x="100" dy="14">  stack.optimize();</tspan>
      <tspan x="100" dy="14">  git.branch();</tspan>
      <tspan x="90" dy="14">}</tspan>
    </text>
    
    <!-- Card 2 (middle) -->
    <rect x="90" y="100" width="180" height="100" rx="12" fill="url(#cardGrad)" filter="url(#cardShadow)" transform="rotate(-4 180 150)"/>
    <text x="100" y="125" fill="#ffffff" font-family="SF Mono, Monaco, monospace" font-size="11" transform="rotate(-4 180 150)">
      <tspan x="100" dy="0">+ stack.push()</tspan>
      <tspan x="100" dy="14">+ conflict.resolve()</tspan>
      <tspan x="100" dy="14">+ git.optimize()</tspan>
      <tspan x="100" dy="14">+ bitbucket.sync()</tspan>
    </text>
    
    <!-- Card 3 (front) -->
    <rect x="100" y="80" width="180" height="100" rx="12" fill="url(#cardGrad)" filter="url(#cardShadow)"/>
    <rect x="105" y="85" width="170" height="8" rx="4" fill="url(#sageGrad)"/>
    <text x="110" y="105" fill="#22e55d" font-family="SF Mono, Monaco, monospace" font-size="11" font-weight="600">
      <tspan x="110" dy="0">cascade stack create</tspan>
      <tspan x="110" dy="14" fill="#ffffff">--base main feature-auth</tspan>
      <tspan x="110" dy="14" fill="#5e5e5e">✓ Stack created</tspan>
      <tspan x="110" dy="14" fill="#5e5e5e">✓ Ready for commits</tspan>
    </text>
  </g>
  
  <!-- Main title -->
  <g id="title" filter="url(#glow)">
    <text x="600" y="180" fill="#ffffff" font-family="-apple-system, BlinkMacSystemFont, SF Pro Display, system-ui, sans-serif" font-size="72" font-weight="300" text-anchor="middle" letter-spacing="-2px">
      Cascade CLI
    </text>
    <text x="600" y="220" fill="#5e5e5e" font-family="-apple-system, BlinkMacSystemFont, SF Pro Display, system-ui, sans-serif" font-size="24" font-weight="400" text-anchor="middle" letter-spacing="1px">
      Professional Git Stack Management
    </text>
    <text x="600" y="250" fill="#3a3a3a" font-family="-apple-system, BlinkMacSystemFont, SF Pro Display, system-ui, sans-serif" font-size="16" font-weight="400" text-anchor="middle">
      Transform your workflow with stacked diffs • Bitbucket integration • Smart conflict resolution
    </text>
  </g>
  
  <!-- Feature badges (properly sized to avoid cutoff) -->
  <g id="badges">
    <!-- Stacked Diffs -->
    <rect x="350" y="290" width="120" height="32" rx="16" fill="#262626" stroke="#22e55d" stroke-width="1"/>
    <circle cx="365" cy="306" r="4" fill="#22e55d"/>
    <text x="375" y="310" fill="#ffffff" font-family="-apple-system, BlinkMacSystemFont, system-ui, sans-serif" font-size="12" font-weight="500">Stacked Diffs</text>
    
    <!-- Smart Rebase -->
    <rect x="480" y="290" width="115" height="32" rx="16" fill="#262626" stroke="#22e55d" stroke-width="1"/>
    <circle cx="495" cy="306" r="4" fill="#22e55d"/>
    <text x="505" y="310" fill="#ffffff" font-family="-apple-system, BlinkMacSystemFont, system-ui, sans-serif" font-size="12" font-weight="500">Smart Rebase</text>
    
    <!-- Enterprise Ready -->
    <rect x="605" y="290" width="130" height="32" rx="16" fill="#262626" stroke="#22e55d" stroke-width="1"/>
    <circle cx="620" cy="306" r="4" fill="#22e55d"/>
    <text x="630" y="310" fill="#ffffff" font-family="-apple-system, BlinkMacSystemFont, system-ui, sans-serif" font-size="12" font-weight="500">Enterprise Ready</text>
    
    <!-- Rust Powered -->
    <rect x="745" y="290" width="115" height="32" rx="16" fill="#262626" stroke="#22e55d" stroke-width="1"/>
    <circle cx="760" cy="306" r="4" fill="#22e55d"/>
    <text x="770" y="310" fill="#ffffff" font-family="-apple-system, BlinkMacSystemFont, system-ui, sans-serif" font-size="12" font-weight="500">Rust Powered</text>
  </g>
  
  <!-- Git branch visualization (right side) -->
  <g id="gitViz" opacity="0.6">
    <!-- Main branch line -->
    <line x1="950" y1="80" x2="950" y2="320" stroke="#262626" stroke-width="3"/>
    
    <!-- Feature branches -->
    <g stroke="#22e55d" stroke-width="2" fill="none">
      <!-- Branch 1 -->
      <path d="M950 120 Q970 120 980 140 L980 180 Q980 200 970 200 L950 200"/>
      <circle cx="980" cy="160" r="3" fill="#22e55d"/>
      
      <!-- Branch 2 -->
      <path d="M950 160 Q990 160 1000 180 L1000 220 Q1000 240 990 240 L950 240"/>
      <circle cx="1000" cy="200" r="3" fill="#22e55d"/>
      
      <!-- Branch 3 -->
      <path d="M950 200 Q1010 200 1020 220 L1020 260 Q1020 280 1010 280 L950 280"/>
      <circle cx="1020" cy="240" r="3" fill="#22e55d"/>
    </g>
    
    <!-- Main branch commits -->
    <circle cx="950" cy="100" r="4" fill="#ffffff"/>
    <circle cx="950" cy="140" r="4" fill="#ffffff"/>
    <circle cx="950" cy="180" r="4" fill="#ffffff"/>
    <circle cx="950" cy="220" r="4" fill="#ffffff"/>
    <circle cx="950" cy="260" r="4" fill="#ffffff"/>
    <circle cx="950" cy="300" r="4" fill="#ffffff"/>
  </g>
  
  <!-- Floating particles -->
  <g id="particles" opacity="0.4">
    <circle cx="200" cy="60" r="2" fill="#22e55d">
      <animate attributeName="cy" values="60;80;60" dur="4s" repeatCount="indefinite"/>
      <animate attributeName="opacity" values="0.4;0.8;0.4" dur="4s" repeatCount="indefinite"/>
    </circle>
    <circle cx="850" cy="350" r="1.5" fill="#525252">
      <animate attributeName="cy" values="350;330;350" dur="6s" repeatCount="indefinite"/>
      <animate attributeName="opacity" values="0.3;0.7;0.3" dur="6s" repeatCount="indefinite"/>
    </circle>
    <circle cx="1100" cy="100" r="1" fill="#22e55d">
      <animate attributeName="cy" values="100;120;100" dur="5s" repeatCount="indefinite"/>
      <animate attributeName="opacity" values="0.2;0.6;0.2" dur="5s" repeatCount="indefinite"/>
    </circle>
  </g>
  
  <!-- Subtle corner accent -->
  <path d="M0 0 L60 0 L0 60 Z" fill="url(#sageGrad)" opacity="0.1"/>
  <path d="M1200 400 L1140 400 L1200 340 Z" fill="url(#sageGrad)" opacity="0.1"/>
</svg> 